<?xml version="1.0" encoding="utf-8"?><svg xmlns="http://www.w3.org/2000/svg" xmlns:xlink="http://www.w3.org/1999/xlink" width="200px" height="200px" viewBox="0 0 100 100" preserveAspectRatio="xMidYMid" style="margin-right:-1.33333px;display:block;animation-play-state:paused" ><g transform="rotate(0 50 50)" style="transform:matrix(1, 0, 0, 1, 0, 0);animation-play-state:paused" ><rect x="49.5" y="26" rx="0.5" ry="4" width="1" height="8" fill="#444444" opacity="0.026316" style="opacity:0.026316;animation-play-state:paused" ></rect></g>
<g transform="rotate(9.473684210526315 50 50)" style="transform:matrix(0.986361, 0.164595, -0.164595, 0.986361, 8.91166, -7.54779);animation-play-state:paused" ><rect x="49.5" y="26" rx="0.5" ry="4" width="1" height="8" fill="#444444" opacity="0.052632" style="opacity:0.052632;animation-play-state:paused" ></rect></g>
<g transform="rotate(18.94736842105263 50 50)" style="transform:matrix(0.945817, 0.324699, -0.324699, 0.945817, 18.9441, -13.5258);animation-play-state:paused" ><rect x="49.5" y="26" rx="0.5" ry="4" width="1" height="8" fill="#444444" opacity="0.078948" style="opacity:0.078948;animation-play-state:paused" ></rect></g>
<g transform="rotate(28.42105263157895 50 50)" style="transform:matrix(0.879474, 0.475947, -0.475947, 0.879474, 29.8237, -17.7711);animation-play-state:paused" ><rect x="49.5" y="26" rx="0.5" ry="4" width="1" height="8" fill="#444444" opacity="0.105264" style="opacity:0.105264;animation-play-state:paused" ></rect></g>
<g transform="rotate(37.89473684210526 50 50)" style="transform:matrix(0.789141, 0.614213, -0.614213, 0.789141, 41.2536, -20.1677);animation-play-state:paused" ><rect x="49.5" y="26" rx="0.5" ry="4" width="1" height="8" fill="#444444" opacity="0.13158" style="opacity:0.13158;animation-play-state:paused" ></rect></g>
<g transform="rotate(47.36842105263158 50 50)" style="transform:matrix(0.677282, 0.735724, -0.735724, 0.677282, 52.9221, -20.6503);animation-play-state:paused" ><rect x="49.5" y="26" rx="0.5" ry="4" width="1" height="8" fill="#444444" opacity="0.157896" style="opacity:0.157896;animation-play-state:paused" ></rect></g>
<g transform="rotate(56.8421052631579 50 50)" style="transform:matrix(0.546948, 0.837166, -0.837166, 0.546948, 64.5109, -19.2057);animation-play-state:paused" ><rect x="49.5" y="26" rx="0.5" ry="4" width="1" height="8" fill="#444444" opacity="0.184212" style="opacity:0.184212;animation-play-state:paused" ></rect></g>
<g transform="rotate(66.3157894736842 50 50)" style="transform:matrix(0.401695, 0.915773, -0.915773, 0.401695, 75.7039, -15.8734);animation-play-state:paused" ><rect x="49.5" y="26" rx="0.5" ry="4" width="1" height="8" fill="#444444" opacity="0.210528" style="opacity:0.210528;animation-play-state:paused" ></rect></g>
<g transform="rotate(75.78947368421052 50 50)" style="transform:matrix(0.245485, 0.9694, -0.9694, 0.245485, 86.1957, -10.7443);animation-play-state:paused" ><rect x="49.5" y="26" rx="0.5" ry="4" width="1" height="8" fill="#444444" opacity="0.236844" style="opacity:0.236844;animation-play-state:paused" ></rect></g>
<g transform="rotate(85.26315789473684 50 50)" style="transform:matrix(0.0825793, 0.996584, -0.996584, 0.0825793, 95.7003, -3.95819);animation-play-state:paused" ><rect x="49.5" y="26" rx="0.5" ry="4" width="1" height="8" fill="#444444" opacity="0.263158" style="opacity:0.263158;animation-play-state:paused" ></rect></g>
<g transform="rotate(94.73684210526316 50 50)" style="transform:matrix(-0.0825793, 0.996584, -0.996584, -0.0825793, 103.958, 4.29974);animation-play-state:paused" ><rect x="49.5" y="26" rx="0.5" ry="4" width="1" height="8" fill="#444444" opacity="0.289474" style="opacity:0.289474;animation-play-state:paused" ></rect></g>
<g transform="rotate(104.21052631578948 50 50)" style="transform:matrix(-0.245485, 0.9694, -0.9694, -0.245485, 110.744, 13.8043);animation-play-state:paused" ><rect x="49.5" y="26" rx="0.5" ry="4" width="1" height="8" fill="#444444" opacity="0.31579" style="opacity:0.31579;animation-play-state:paused" ></rect></g>
<g transform="rotate(113.6842105263158 50 50)" style="transform:matrix(-0.401695, 0.915773, -0.915773, -0.401695, 115.873, 24.2961);animation-play-state:paused" ><rect x="49.5" y="26" rx="0.5" ry="4" width="1" height="8" fill="#444444" opacity="0.342106" style="opacity:0.342106;animation-play-state:paused" ></rect></g>
<g transform="rotate(123.15789473684211 50 50)" style="transform:matrix(-0.546948, 0.837166, -0.837166, -0.546948, 119.206, 35.4891);animation-play-state:paused" ><rect x="49.5" y="26" rx="0.5" ry="4" width="1" height="8" fill="#444444" opacity="0.368422" style="opacity:0.368422;animation-play-state:paused" ></rect></g>
<g transform="rotate(132.6315789473684 50 50)" style="transform:matrix(-0.677282, 0.735724, -0.735724, -0.677282, 120.65, 47.0779);animation-play-state:paused" ><rect x="49.5" y="26" rx="0.5" ry="4" width="1" height="8" fill="#444444" opacity="0.394738" style="opacity:0.394738;animation-play-state:paused" ></rect></g>
<g transform="rotate(142.10526315789474 50 50)" style="transform:matrix(-0.789141, 0.614213, -0.614213, -0.789141, 120.168, 58.7464);animation-play-state:paused" ><rect x="49.5" y="26" rx="0.5" ry="4" width="1" height="8" fill="#444444" opacity="0.421054" style="opacity:0.421054;animation-play-state:paused" ></rect></g>
<g transform="rotate(151.57894736842104 50 50)" style="transform:matrix(-0.879474, 0.475947, -0.475947, -0.879474, 117.771, 70.1763);animation-play-state:paused" ><rect x="49.5" y="26" rx="0.5" ry="4" width="1" height="8" fill="#444444" opacity="0.44737" style="opacity:0.44737;animation-play-state:paused" ></rect></g>
<g transform="rotate(161.05263157894737 50 50)" style="transform:matrix(-0.945817, 0.3247, -0.3247, -0.945817, 113.526, 81.0559);animation-play-state:paused" ><rect x="49.5" y="26" rx="0.5" ry="4" width="1" height="8" fill="#444444" opacity="0.473686" style="opacity:0.473686;animation-play-state:paused" ></rect></g>
<g transform="rotate(170.52631578947367 50 50)" style="transform:matrix(-0.986361, 0.164594, -0.164594, -0.986361, 107.548, 91.0883);animation-play-state:paused" ><rect x="49.5" y="26" rx="0.5" ry="4" width="1" height="8" fill="#444444" opacity="0.5" style="opacity:0.5;animation-play-state:paused" ></rect></g>
<g transform="rotate(180 50 50)" style="transform:matrix(-1, 0, 0, -1, 100, 100);animation-play-state:paused" ><rect x="49.5" y="26" rx="0.5" ry="4" width="1" height="8" fill="#444444" opacity="0.526316" style="opacity:0.526316;animation-play-state:paused" ></rect></g>
<g transform="rotate(189.47368421052633 50 50)" style="transform:matrix(-0.986361, -0.164594, 0.164594, -0.986361, 91.0883, 107.548);animation-play-state:paused" ><rect x="49.5" y="26" rx="0.5" ry="4" width="1" height="8" fill="#444444" opacity="0.552632" style="opacity:0.552632;animation-play-state:paused" ></rect></g>
<g transform="rotate(198.94736842105263 50 50)" style="transform:matrix(-0.945817, -0.3247, 0.3247, -0.945817, 81.0559, 113.526);animation-play-state:paused" ><rect x="49.5" y="26" rx="0.5" ry="4" width="1" height="8" fill="#444444" opacity="0.578948" style="opacity:0.578948;animation-play-state:paused" ></rect></g>
<g transform="rotate(208.42105263157896 50 50)" style="transform:matrix(-0.879474, -0.475947, 0.475947, -0.879474, 70.1763, 117.771);animation-play-state:paused" ><rect x="49.5" y="26" rx="0.5" ry="4" width="1" height="8" fill="#444444" opacity="0.605264" style="opacity:0.605264;animation-play-state:paused" ></rect></g>
<g transform="rotate(217.89473684210526 50 50)" style="transform:matrix(-0.789141, -0.614213, 0.614213, -0.789141, 58.7464, 120.168);animation-play-state:paused" ><rect x="49.5" y="26" rx="0.5" ry="4" width="1" height="8" fill="#444444" opacity="0.63158" style="opacity:0.63158;animation-play-state:paused" ></rect></g>
<g transform="rotate(227.3684210526316 50 50)" style="transform:matrix(-0.677282, -0.735724, 0.735724, -0.677282, 47.0779, 120.65);animation-play-state:paused" ><rect x="49.5" y="26" rx="0.5" ry="4" width="1" height="8" fill="#444444" opacity="0.657896" style="opacity:0.657896;animation-play-state:paused" ></rect></g>
<g transform="rotate(236.8421052631579 50 50)" style="transform:matrix(-0.546948, -0.837166, 0.837166, -0.546948, 35.4891, 119.206);animation-play-state:paused" ><rect x="49.5" y="26" rx="0.5" ry="4" width="1" height="8" fill="#444444" opacity="0.684212" style="opacity:0.684212;animation-play-state:paused" ></rect></g>
<g transform="rotate(246.31578947368422 50 50)" style="transform:matrix(-0.401695, -0.915773, 0.915773, -0.401695, 24.2961, 115.873);animation-play-state:paused" ><rect x="49.5" y="26" rx="0.5" ry="4" width="1" height="8" fill="#444444" opacity="0.710528" style="opacity:0.710528;animation-play-state:paused" ></rect></g>
<g transform="rotate(255.78947368421052 50 50)" style="transform:matrix(-0.245485, -0.9694, 0.9694, -0.245485, 13.8043, 110.744);animation-play-state:paused" ><rect x="49.5" y="26" rx="0.5" ry="4" width="1" height="8" fill="#444444" opacity="0.736844" style="opacity:0.736844;animation-play-state:paused" ></rect></g>
<g transform="rotate(265.2631578947368 50 50)" style="transform:matrix(-0.0825794, -0.996584, 0.996584, -0.0825794, 4.29975, 103.958);animation-play-state:paused" ><rect x="49.5" y="26" rx="0.5" ry="4" width="1" height="8" fill="#444444" opacity="0.763158" style="opacity:0.763158;animation-play-state:paused" ></rect></g>
<g transform="rotate(274.7368421052632 50 50)" style="transform:matrix(0.0825794, -0.996584, 0.996584, 0.0825794, -3.9582, 95.7003);animation-play-state:paused" ><rect x="49.5" y="26" rx="0.5" ry="4" width="1" height="8" fill="#444444" opacity="0.789474" style="opacity:0.789474;animation-play-state:paused" ></rect></g>
<g transform="rotate(284.2105263157895 50 50)" style="transform:matrix(0.245486, -0.9694, 0.9694, 0.245486, -10.7443, 86.1957);animation-play-state:paused" ><rect x="49.5" y="26" rx="0.5" ry="4" width="1" height="8" fill="#444444" opacity="0.81579" style="opacity:0.81579;animation-play-state:paused" ></rect></g>
<g transform="rotate(293.6842105263158 50 50)" style="transform:matrix(0.401695, -0.915773, 0.915773, 0.401695, -15.8734, 75.7039);animation-play-state:paused" ><rect x="49.5" y="26" rx="0.5" ry="4" width="1" height="8" fill="#444444" opacity="0.842106" style="opacity:0.842106;animation-play-state:paused" ></rect></g>
<g transform="rotate(303.1578947368421 50 50)" style="transform:matrix(0.546948, -0.837166, 0.837166, 0.546948, -19.2057, 64.5109);animation-play-state:paused" ><rect x="49.5" y="26" rx="0.5" ry="4" width="1" height="8" fill="#444444" opacity="0.868422" style="opacity:0.868422;animation-play-state:paused" ></rect></g>
<g transform="rotate(312.63157894736844 50 50)" style="transform:matrix(0.677282, -0.735724, 0.735724, 0.677282, -20.6503, 52.9221);animation-play-state:paused" ><rect x="49.5" y="26" rx="0.5" ry="4" width="1" height="8" fill="#444444" opacity="0.894738" style="opacity:0.894738;animation-play-state:paused" ></rect></g>
<g transform="rotate(322.10526315789474 50 50)" style="transform:matrix(0.78914, -0.614213, 0.614213, 0.78914, -20.1677, 41.2536);animation-play-state:paused" ><rect x="49.5" y="26" rx="0.5" ry="4" width="1" height="8" fill="#444444" opacity="0.921054" style="opacity:0.921054;animation-play-state:paused" ></rect></g>
<g transform="rotate(331.57894736842104 50 50)" style="transform:matrix(0.879474, -0.475947, 0.475947, 0.879474, -17.7711, 29.8237);animation-play-state:paused" ><rect x="49.5" y="26" rx="0.5" ry="4" width="1" height="8" fill="#444444" opacity="0.94737" style="opacity:0.94737;animation-play-state:paused" ></rect></g>
<g transform="rotate(341.05263157894734 50 50)" style="transform:matrix(0.945817, -0.324699, 0.324699, 0.945817, -13.5258, 18.9441);animation-play-state:paused" ><rect x="49.5" y="26" rx="0.5" ry="4" width="1" height="8" fill="#444444" opacity="0.973686" style="opacity:0.973686;animation-play-state:paused" ></rect></g>
<g transform="rotate(350.5263157894737 50 50)" style="transform:matrix(0.986361, -0.164595, 0.164595, 0.986361, -7.5478, 8.91167);animation-play-state:paused" ><rect x="49.5" y="26" rx="0.5" ry="4" width="1" height="8" fill="#444444" opacity="1" style="animation-play-state:paused" ></rect></g><!-- generated by https://loading.io/ --></svg>